<?xml version="1.0" encoding="utf-8"?>
<!-- Generator: Adobe Illustrator 21.0.0, SVG Export Plug-In . SVG Version: 6.00 Build 0)  -->
<svg version="1.1" id="Layer_1" xmlns="http://www.w3.org/2000/svg" xmlns:xlink="http://www.w3.org/1999/xlink" x="0px" y="0px"
	 viewBox="0 0 21.6 21.6" style="enable-background:new 0 0 21.6 21.6;" xml:space="preserve">
<style type="text/css">
	.st0{fill:#FF5500;}
</style>
<path class="st0" d="M20.5,8.2H0.9c-0.4,0-0.7-0.3-0.7-0.7v0c0-0.4,0.3-0.7,0.7-0.7h19.6c0.4,0,0.7,0.3,0.7,0.7v0
	C21.1,7.9,20.8,8.2,20.5,8.2z"/>
<path class="st0" d="M11.3,11.8H0.9c-0.4,0-0.7-0.3-0.7-0.7v0c0-0.4,0.3-0.7,0.7-0.7h10.4c0.4,0,0.7,0.3,0.7,0.7v0
	C12,11.5,11.7,11.8,11.3,11.8z"/>
</svg>
