<?xml version="1.0" encoding="utf-8"?>
<!-- Generator: Adobe Illustrator 21.0.0, SVG Export Plug-In . SVG Version: 6.00 Build 0)  -->
<svg version="1.1" id="Layer_1" xmlns="http://www.w3.org/2000/svg" xmlns:xlink="http://www.w3.org/1999/xlink" x="0px" y="0px"
	 viewBox="0 0 21.6 21.6" style="enable-background:new 0 0 21.6 21.6;" xml:space="preserve">
<style type="text/css">
	.st0{fill:#FF5500;}
	.st1{fill:none;stroke:#FF5500;stroke-width:0.62;stroke-miterlimit:10;}
	.st2{fill:none;stroke:#FF5500;stroke-width:0.5;stroke-miterlimit:10;}
	.st3{fill:#232123;}
</style>
<path class="st0" d="M16.6,6.2h-1.7v0.6h1.5c0,0,0.2,0,0.2,0.2c0,0.2,0,5.8,0,5.8s0,0.3-0.2,0.3c-0.2,0-7.5,0-7.5,0v1.8h1.3
	c0,0,0.1,1.2-0.5,1.4c0,0-0.7,0.4-0.6,0.5c0,0,0,0.1,0.2,0.1l2,0l2.4,0c0,0,0.2-0.1,0-0.3c0,0-0.8-0.4-1-0.8l-0.1-0.9h3.8
	c0,0,0.8,0.1,0.8-0.8c0-0.8,0-7.3,0-7.3S17.2,6.3,16.6,6.2z M11.4,14.8c-0.3,0-0.6-0.3-0.6-0.6c0-0.3,0.3-0.6,0.6-0.6
	c0.3,0,0.6,0.3,0.6,0.6C12,14.6,11.7,14.8,11.4,14.8z"/>
<path class="st1" d="M11,6.5H6.5c-0.4,0-0.7,0.3-0.7,0.7v3.2"/>
<path class="st2" d="M7.8,16.7H4.4c-0.1,0-0.2-0.1-0.2-0.2v-5.1c0-0.1,0.1-0.2,0.2-0.2h3.4c0.1,0,0.2,0.1,0.2,0.2v5.1
	C8,16.6,7.9,16.7,7.8,16.7z"/>
<rect x="4.2" y="16" class="st0" width="3.8" height="0.6"/>
<circle class="st3" cx="6" cy="16.4" r="0.3"/>
<path class="st2" d="M14.1,9.3h-2.2c-0.1,0-0.2-0.1-0.2-0.2V4.9c0-0.1,0.1-0.2,0.2-0.2h2.2c0.1,0,0.2,0.1,0.2,0.2v4.1
	C14.3,9.2,14.2,9.3,14.1,9.3z"/>
<rect x="11.7" y="8.7" class="st0" width="2.6" height="0.5"/>
<circle class="st3" cx="13" cy="9.2" r="0.2"/>
</svg>
